<?xml version="1.0" encoding="UTF-8"?><svg id="Layer_1" xmlns="http://www.w3.org/2000/svg" width="500" height="500" viewBox="0 0 500 500"><defs><style>.cls-1{fill:#3f5787;}</style></defs><path class="cls-1" d="m347.38,81.76l-35-20.21-62.37-36.01-62.37,36.01-35,20.21-97.02,56.01v224.46l97.02,56.01,35,20.21,62.37,36.01,62.37-36.01,35-20.21,97.01-56.01v-224.46l-97.01-56.01Zm44.51,66.12l17.5,10.1v163.83l-62.01-35.8V122.18l44.51,25.7Zm-141.88-81.92l62.37,36.01v163.84l-27.38-15.81-34.99-20.21-62.37-36v-91.82l62.37-36.01ZM108.11,352.12l-17.5-10.1v-184.04l17.5-10.1,44.52-25.71v255.66l-44.52-25.71Zm239.26,25.7l-35,20.21-44.87,25.91-17.5,10.1-17.5-10.1-44.87-25.91v-163.83l27.37,15.8,17.5,10.11,17.5,10.1,17.5,10.1,44.87,25.91,35,20.21,44.51,25.69-44.51,25.7Z"/></svg>